# xmcd CD database file
#
# Track frame offsets:
#	150
#	21699
#	42100
#	60214
#	75930
#	94231
#	113261
#	133444
#	151704
#	174842
#	194357
#	214622
#	230840
#	246049
#	264513
#	285139
#	300778
#
# Disc length: 4435 seconds
#
# Revision: 0
# Processed by: cddbd v1.4PL0 Copyright (c) Steve Scherf et al.
# Submitted via: CDex 1.50beta10
#
DISCID=cc115111
DTITLE=Various Artist - Merenge Y Cumbia Vol.2
DYEAR=1900
DGENRE=Merengue
TTITLE0=La Moreno
TTITLE1=Merengue Party
TTITLE2=La Batea
TTITLE3=La Gota Fria
TTITLE4=Candelosa
TTITLE5=Que Buena Esta
TTITLE6=Tu Muere Aqui
TTITLE7=Cumbia Sampuesana
TTITLE8=Brinca
TTITLE9=El Taqui Taqui 
TTITLE10=El Baile Del Mono
TTITLE11=El Baile De La Botella
TTITLE12=El Quedao
TTITLE13=Rompecintura
TTITLE14=Merengazo
TTITLE15=El Campanero
TTITLE16=Pachanga Latina Mix
EXTD=
EXTT0=
EXTT1=
EXTT2=
EXTT3=
EXTT4=
EXTT5=
EXTT6=
EXTT7=
EXTT8=
EXTT9=
EXTT10=
EXTT11=
EXTT12=
EXTT13=
EXTT14=
EXTT15=
EXTT16=
PLAYORDER=
